<?xml version="1.0" ?>
<!-- Uploaded to: SVG Repo, www.svgrepo.com, Generator: SVG Repo Mixer Tools -->
<svg fill="#000000" width="800px" height="800px" viewBox="0 0 100 100" version="1.1" xml:space="preserve" xmlns="http://www.w3.org/2000/svg" xmlns:xlink="http://www.w3.org/1999/xlink">
<g id="tree"/>
<g id="plant"/>
<g id="flower"/>
<g id="flower_pot"/>
<g id="rose">
<path d="M80,64H67V49.4l3.4-3.4c1.1-0.1,5.4-0.8,7.3-4.8c2.1-4.2,1-11.1,0.9-11.4c-0.1-0.3-0.3-0.6-0.5-0.7c-0.3-0.1-0.6-0.1-0.9,0   c-0.3,0.1-6.4,3.4-8.5,7.6c-1.7,3.3-0.6,6.6,0.1,8L67,46.6V30.9c2-0.2,5.5-1.1,7.7-4.6c3-4.9,2.2-13.1,2.2-13.4   c0-0.3-0.2-0.6-0.5-0.7s-0.6-0.2-0.9-0.1c-0.1,0-0.7,0.3-1.5,0.6V9c0-0.1,0-0.1,0-0.1c0-0.1,0-0.2,0-0.4C74,5.9,70.6,4,66,4   s-8,1.9-8,4.5c0,0.1,0,0.2,0,0.4c0,0,0,0.1,0,0.1v3.7c-0.9-0.4-1.4-0.6-1.5-0.6c-0.3-0.1-0.6-0.1-0.9,0.1c-0.3,0.2-0.4,0.4-0.5,0.7   c0,0.3-0.9,8.5,2.2,13.4c2.2,3.5,5.6,4.4,7.7,4.6v22.6l-1.8-1.8c0.7-1.5,1.7-4.7,0.1-8c-2.1-4.2-8.2-7.5-8.5-7.6   c-0.3-0.1-0.6-0.2-0.9,0c-0.3,0.1-0.5,0.4-0.5,0.7c0,0.3-1.1,7.2,0.9,11.4c2,3.9,6.3,4.6,7.3,4.8l3.4,3.4V64H35V49.4l3.4-3.4   c1.1-0.1,5.4-0.8,7.3-4.8c2.1-4.2,1-11.1,0.9-11.4c-0.1-0.3-0.3-0.6-0.5-0.7c-0.3-0.1-0.6-0.1-0.9,0c-0.3,0.1-6.4,3.4-8.5,7.6   c-1.7,3.3-0.6,6.6,0.1,8L35,46.6V30.9c2-0.2,5.5-1.1,7.7-4.6c3-4.9,2.2-13.1,2.2-13.4c0-0.3-0.2-0.6-0.5-0.7   c-0.3-0.2-0.6-0.2-0.9-0.1c-0.1,0-0.7,0.3-1.5,0.6V9c0-0.1,0-0.1,0-0.1c0-0.1,0-0.2,0-0.4C42,5.9,38.6,4,34,4s-8,1.9-8,4.5   c0,0.1,0,0.2,0,0.4c0,0,0,0.1,0,0.1v3.7c-0.9-0.4-1.4-0.6-1.5-0.6c-0.3-0.1-0.6-0.1-0.9,0.1c-0.3,0.2-0.4,0.4-0.5,0.7   c0,0.3-0.9,8.5,2.2,13.4c2.2,3.5,5.6,4.4,7.7,4.6v22.6l-1.8-1.8c0.7-1.5,1.7-4.7,0.1-8c-2.1-4.2-8.2-7.5-8.5-7.6   c-0.3-0.1-0.6-0.2-0.9,0c-0.3,0.1-0.5,0.4-0.5,0.7c0,0.3-1.1,7.2,0.9,11.4c2,3.9,6.3,4.6,7.3,4.8l3.4,3.4V64H20c-0.6,0-1,0.4-1,1v6   c0,0.6,0.4,1,1,1h0.1L22,93.1c0,0.5,0.5,0.9,1,0.9h3.4c1.4,0,2.6-0.9,3-2.2c0.2-0.5,0.6-0.8,1.1-0.8h14.3c0.5,0,1,0.3,1.1,0.8   c0.4,1.1,1.4,1.9,2.5,2.1c0.1,0,0.2,0.1,0.3,0.1H51c0.1,0,0.2,0,0.3-0.1c1.2-0.2,2.2-1,2.5-2.1C54,91.3,54.5,91,55,91h14.4   c0.5,0,1,0.3,1.1,0.8c0.4,1.3,1.7,2.2,3,2.2H77c0.5,0,0.9-0.4,1-0.9L79.9,72H80c0.6,0,1-0.4,1-1v-6C81,64.4,80.6,64,80,64z    M70.6,37.6c1.3-2.6,4.5-4.8,6.3-6c0.2,2.1,0.3,6.1-0.9,8.7c-1.3,2.6-4,3.4-5.3,3.6C70.1,42.8,69.3,40.2,70.6,37.6z M56.1,47.3   c-1.3-2.6-1.1-6.6-0.9-8.7c1.8,1.1,5.1,3.4,6.3,6c1.3,2.6,0.4,5.2-0.1,6.3C60.1,50.7,57.4,50,56.1,47.3z M73,25.3   c-1.3,2-3.1,2.9-4.6,3.4c0.7-2,1.3-5.3-0.8-8.6c-0.1-0.2-0.2-0.3-0.3-0.4c2.3-2.5,5.8-4.3,7.7-5.2C75.1,16.9,75,22,73,25.3z M66,6   c3.7,0,6,1.5,6,2.5S69.7,11,66,11s-6-1.5-6-2.5S62.3,6,66,6z M60,11.5c1.4,0.9,3.6,1.5,6,1.5s4.6-0.6,6-1.5v2.2   c-1.9,1-4.2,2.5-6,4.4c-1.8-1.9-4.1-3.3-6-4.4V11.5z M59,25.3c-2-3.2-2.1-8.4-2-10.8c2.2,1,6.9,3.4,8.9,6.6   c2.1,3.3,0.8,6.7,0.2,7.9C64.7,29,61.1,28.6,59,25.3z M38.6,37.6c1.3-2.6,4.5-4.8,6.3-6c0.2,2.1,0.3,6.1-0.9,8.7   c-1.3,2.6-4,3.4-5.3,3.6C38.1,42.8,37.3,40.2,38.6,37.6z M24.1,47.3c-1.3-2.6-1.1-6.6-0.9-8.7c1.8,1.1,5.1,3.4,6.3,6   c1.3,2.6,0.4,5.2-0.1,6.3C28.1,50.7,25.4,50,24.1,47.3z M41,25.3c-1.3,2-3.1,2.9-4.6,3.4c0.7-2,1.3-5.3-0.8-8.6   c-0.1-0.2-0.2-0.3-0.3-0.4c2.3-2.5,5.8-4.3,7.7-5.2C43.1,16.9,43,22,41,25.3z M34,6c3.7,0,6,1.5,6,2.5S37.7,11,34,11s-6-1.5-6-2.5   S30.3,6,34,6z M28,11.5c1.4,0.9,3.6,1.5,6,1.5s4.6-0.6,6-1.5v2.2c-1.9,1-4.2,2.5-6,4.4c-1.8-1.9-4.1-3.3-6-4.4V11.5z M27,25.3   c-2-3.2-2.1-8.4-2-10.8c2.2,1,6.9,3.4,8.9,6.6c2.1,3.3,0.8,6.7,0.2,7.9C32.7,29,29.1,28.6,27,25.3z M21,66h58v4H21V66z M76.1,92   h-2.5c-0.5,0-1-0.3-1.1-0.8c-0.4-1.3-1.7-2.2-3-2.2H55c-1.4,0-2.6,0.9-3,2.2c-0.1,0.4-0.6,0.8-1,0.8c-0.1,0-0.1,0-0.1,0h-1.7   c0,0-0.1,0-0.2,0c-0.5,0-0.9-0.3-1-0.8c-0.4-1.3-1.7-2.2-3-2.2H30.6c-1.4,0-2.6,0.9-3,2.2c-0.2,0.5-0.6,0.8-1.1,0.8h-2.5l-1.8-20   h55.8L76.1,92z"/>
</g>
<g id="garden"/>
<g id="fance"/>
<g id="floral"/>
<g id="sunflower"/>
<g id="sprinkle"/>
<g id="water_hose"/>
<g id="planting"/>
<g id="fertilizer"/>
<g id="bee"/>
<g id="butterfly"/>
<g id="shovel"/>
<g id="ladybug"/>
<g id="watering"/>
<g id="hanging_pot"/>
<g id="green_house"/>
</svg>